<svg id="Layer_1" data-name="Layer 1" xmlns="http://www.w3.org/2000/svg" xmlns:xlink="http://www.w3.org/1999/xlink" viewBox="0 0 1024 256"><defs><style>.cls-1,.cls-10,.cls-14{fill:none;}.cls-2{clip-path:url(#clip-path);}.cls-3{fill:#39b54a;}.cls-4{fill:#fb900e;}.cls-5{fill:#1b3727;}.cls-6{fill:url(#linear-gradient);}.cls-7{fill:url(#linear-gradient-2);}.cls-8{opacity:0.5;fill:url(#linear-gradient-3);}.cls-9{opacity:0.3;fill:url(#linear-gradient-4);}.cls-10{stroke:#000;stroke-width:6px;}.cls-10,.cls-14{stroke-linecap:round;stroke-linejoin:round;}.cls-11{fill:#fff;}.cls-12{fill:url(#linear-gradient-5);}.cls-13{fill:url(#linear-gradient-6);}.cls-14{stroke:#142329;stroke-width:8px;}.cls-15{fill:url(#linear-gradient-7);}.cls-16{fill:#8cc63f;}.cls-17{fill:#142329;}.cls-18{fill:url(#linear-gradient-8);}</style><clipPath id="clip-path"><rect class="cls-1" width="1024" height="254.62"/></clipPath><linearGradient id="linear-gradient" x1="981.2" y1="134.76" x2="935.25" y2="61.79" gradientUnits="userSpaceOnUse"><stop offset="0" stop-color="#fcfd1b"/><stop offset="1" stop-color="#fb900e"/></linearGradient><linearGradient id="linear-gradient-2" x1="937.55" y1="119.65" x2="993.3" y2="61.1" gradientUnits="userSpaceOnUse"><stop offset="0" stop-color="#fcfd1b" stop-opacity="0"/><stop offset="1" stop-color="#fbffff" stop-opacity="0.5"/></linearGradient><linearGradient id="linear-gradient-3" x1="919.51" y1="152.34" x2="977.12" y2="72.97" gradientUnits="userSpaceOnUse"><stop offset="0" stop-color="#fcfd1b"/><stop offset="1" stop-color="#fb660e"/></linearGradient><linearGradient id="linear-gradient-4" x1="932.55" y1="151.3" x2="971.02" y2="98.3" xlink:href="#linear-gradient-3"/><linearGradient id="linear-gradient-5" x1="801.4" y1="245.53" x2="878.32" y2="102.17" gradientUnits="userSpaceOnUse"><stop offset="0" stop-color="#00468b"/><stop offset="1" stop-color="#39b54a"/></linearGradient><linearGradient id="linear-gradient-6" x1="816.63" y1="190.81" x2="934.54" y2="28.35" xlink:href="#linear-gradient-5"/><linearGradient id="linear-gradient-7" x1="848.22" y1="137.77" x2="887.56" y2="64.46" xlink:href="#linear-gradient-5"/><linearGradient id="linear-gradient-8" x1="876.67" y1="59.33" x2="889.51" y2="35.41" gradientUnits="userSpaceOnUse"><stop offset="0" stop-color="#00468b"/><stop offset="0.21" stop-color="#136b75"/><stop offset="0.42" stop-color="#248b62"/><stop offset="0.63" stop-color="#2fa255"/><stop offset="0.83" stop-color="#37b04d"/><stop offset="1" stop-color="#39b54a"/></linearGradient></defs><title>Final Logo_Kea Chat</title><g class="cls-2"><path class="cls-3" d="M94.15,85.85l43.91,55.62H106.17l-37-48.84v48.84H42.84V32.55H69.19V80.46l37.28-47.92h31.58Z"/><path class="cls-3" d="M175.49,53.5V76.3h36.82V96.18H175.49v24.19h41.44v21.11H149.15V32.55h67.79v21Z"/><path class="cls-3" d="M299.36,121.6H258.54l-6.78,19.88H224l39.9-108.16h30.35l39.9,108.16h-28Zm-6.78-20L279,61.51l-13.71,40.06Z"/><path class="cls-4" d="M458.21,41.56q12.94,9.79,17.87,26.73H461.29a36.22,36.22,0,0,0-13.4-17.18q-9.24-6.39-22.65-6.39a34.87,34.87,0,0,0-32.28,20q-4.85,9.63-4.85,22.57,0,12.79,4.85,22.34a35,35,0,0,0,32.28,19.87q13.4,0,22.65-6.39a36.21,36.21,0,0,0,13.4-17.18h14.79q-4.93,16.95-17.87,26.73t-32.82,9.78q-15.25,0-27-7a48.28,48.28,0,0,1-18.26-19.57q-6.55-12.56-6.55-28.58,0-16.18,6.55-28.81a48.21,48.21,0,0,1,18.26-19.64q11.71-7,27-7Q445.26,31.78,458.21,41.56Z"/><path class="cls-4" d="M578.22,32.85V141.47H564V91.25H508.89v50.23h-14V32.85h14v47H564v-47Z"/><path class="cls-4" d="M664.35,116.36H616.58l-9.09,25.11H592.4L632.61,34.86h15.87l40.06,106.62h-15.1Zm-4-10.94L640.46,50.57l-19.87,54.85Z"/><path class="cls-4" d="M769.26,32.85v11.4H738.6v97.22h-14V44.26H693.92V32.85Z"/><path class="cls-5" d="M63.81,210.52H48.73l-2.87,7.93H41.09l12.7-33.67h5l12.65,33.67H66.68Zm-1.27-3.45-6.28-17.32L50,207.07Z"/><path class="cls-5" d="M108.23,194.13a11.54,11.54,0,0,1,4.14,7.3h-4.67a6.83,6.83,0,0,0-2.65-4.5,9.37,9.37,0,0,0-9.63-.56,7.79,7.79,0,0,0-3.09,3.28,13.41,13.41,0,0,0,0,10.95,7.77,7.77,0,0,0,3.09,3.28,9.31,9.31,0,0,0,9.63-.58,6.92,6.92,0,0,0,2.65-4.52h4.67a11.48,11.48,0,0,1-4.14,7.32,13.08,13.08,0,0,1-8.47,2.7A13.76,13.76,0,0,1,93,217.14a11.68,11.68,0,0,1-4.65-4.74,16.65,16.65,0,0,1,0-14.57A11.65,11.65,0,0,1,93,193.06a13.76,13.76,0,0,1,6.81-1.65A13,13,0,0,1,108.23,194.13Z"/><path class="cls-5" d="M126.42,192.84a11.43,11.43,0,0,1,6-1.53v4.82H131.1A9.46,9.46,0,0,0,125,198q-2.38,1.92-2.38,6.35v14.06h-4.43V191.74h4.43v5.4A9.82,9.82,0,0,1,126.42,192.84Z"/><path class="cls-5" d="M155.83,193.06a11.84,11.84,0,0,1,4.77,4.77,16.23,16.23,0,0,1,0,14.57,11.88,11.88,0,0,1-4.77,4.74,15.15,15.15,0,0,1-13.77,0,12,12,0,0,1-4.79-4.74,16,16,0,0,1,0-14.57,12,12,0,0,1,4.79-4.77,15.15,15.15,0,0,1,13.77,0Zm-11.29,3.31a8.05,8.05,0,0,0-3.26,3.28,11.07,11.07,0,0,0-1.24,5.47,11,11,0,0,0,1.24,5.42,8,8,0,0,0,3.26,3.28,9.59,9.59,0,0,0,8.81,0,8,8,0,0,0,3.26-3.28,11,11,0,0,0,1.24-5.42,11.06,11.06,0,0,0-1.24-5.47,8.05,8.05,0,0,0-3.26-3.28,9.59,9.59,0,0,0-8.81,0Z"/><path class="cls-5" d="M183.76,193.76a10,10,0,0,1,3.33,6.35h-4.23a6.13,6.13,0,0,0-2-3.92,6.42,6.42,0,0,0-4.5-1.53,5.55,5.55,0,0,0-3.72,1.14,3.85,3.85,0,0,0-1.34,3.09,3.19,3.19,0,0,0,.9,2.36,5.76,5.76,0,0,0,2.24,1.36,37.17,37.17,0,0,0,3.67,1,36.19,36.19,0,0,1,4.79,1.39,7.51,7.51,0,0,1,3.11,2.26,6.37,6.37,0,0,1,1.29,4.18,6.58,6.58,0,0,1-2.46,5.3,9.91,9.91,0,0,1-6.54,2,12.53,12.53,0,0,1-7.78-2.29,9.12,9.12,0,0,1-3.55-6.37h4.28a5.57,5.57,0,0,0,2.12,3.94,7.64,7.64,0,0,0,4.94,1.51,5.13,5.13,0,0,0,3.58-1.17,3.94,3.94,0,0,0,1.29-3.07,3.36,3.36,0,0,0-.92-2.48,6.08,6.08,0,0,0-2.29-1.41,33.61,33.61,0,0,0-3.75-1,36.25,36.25,0,0,1-4.74-1.36,7.25,7.25,0,0,1-3-2.17,6.06,6.06,0,0,1-1.24-4,6.72,6.72,0,0,1,2.48-5.42,10.24,10.24,0,0,1,6.76-2.07A10.78,10.78,0,0,1,183.76,193.76Z"/><path class="cls-5" d="M208.91,193.76a10,10,0,0,1,3.33,6.35H208a6.13,6.13,0,0,0-2-3.92,6.42,6.42,0,0,0-4.5-1.53,5.55,5.55,0,0,0-3.72,1.14,3.85,3.85,0,0,0-1.34,3.09,3.19,3.19,0,0,0,.9,2.36,5.76,5.76,0,0,0,2.24,1.36,37.17,37.17,0,0,0,3.67,1,36.19,36.19,0,0,1,4.79,1.39,7.51,7.51,0,0,1,3.11,2.26,6.37,6.37,0,0,1,1.29,4.18,6.58,6.58,0,0,1-2.46,5.3,9.91,9.91,0,0,1-6.54,2,12.53,12.53,0,0,1-7.78-2.29,9.12,9.12,0,0,1-3.55-6.37h4.28a5.57,5.57,0,0,0,2.12,3.94,7.64,7.64,0,0,0,4.94,1.51,5.13,5.13,0,0,0,3.58-1.17,3.94,3.94,0,0,0,1.29-3.07,3.36,3.36,0,0,0-.92-2.48,6.08,6.08,0,0,0-2.29-1.41,33.61,33.61,0,0,0-3.75-1,36.25,36.25,0,0,1-4.74-1.36,7.25,7.25,0,0,1-3-2.17,6.06,6.06,0,0,1-1.24-4,6.72,6.72,0,0,1,2.48-5.42,10.24,10.24,0,0,1,6.76-2.07A10.78,10.78,0,0,1,208.91,193.76Z"/><path class="cls-5" d="M251.51,193.06a11.42,11.42,0,0,1,4.35,4.77,17.58,17.58,0,0,1,0,14.57,11.44,11.44,0,0,1-4.35,4.74,12.11,12.11,0,0,1-6.32,1.65,10.88,10.88,0,0,1-6.59-2,10,10,0,0,1-3.72-5.18V231.1h-4.43V191.74h4.43v6.81a10,10,0,0,1,3.72-5.18,10.88,10.88,0,0,1,6.59-2A12.11,12.11,0,0,1,251.51,193.06Zm-12.26,3.48A8.23,8.23,0,0,0,236,200a11,11,0,0,0-1.17,5.16,10.84,10.84,0,0,0,1.17,5.13,8.42,8.42,0,0,0,3.26,3.43,9.12,9.12,0,0,0,4.67,1.22,8.64,8.64,0,0,0,6.59-2.6,11.71,11.71,0,0,0,0-14.35,8.64,8.64,0,0,0-6.59-2.6A9.26,9.26,0,0,0,239.25,196.54Z"/><path class="cls-5" d="M267.66,182.45v36h-4.43v-36Z"/><path class="cls-5" d="M292.31,193.35a10.14,10.14,0,0,1,3.77,5.21v-6.81h4.43v26.71h-4.43v-6.81a10.14,10.14,0,0,1-3.77,5.21,11,11,0,0,1-6.59,1.95,12.11,12.11,0,0,1-6.33-1.65A11.43,11.43,0,0,1,275,212.4a17.58,17.58,0,0,1,0-14.57,11.41,11.41,0,0,1,4.35-4.77,12.11,12.11,0,0,1,6.33-1.65A11,11,0,0,1,292.31,193.35Zm-11.87,4.6a11.71,11.71,0,0,0,0,14.35,8.57,8.57,0,0,0,6.54,2.6,9.09,9.09,0,0,0,4.7-1.22,8.47,8.47,0,0,0,3.24-3.43,10.84,10.84,0,0,0,1.17-5.13,11,11,0,0,0-1.17-5.16,8.28,8.28,0,0,0-3.24-3.43,9.23,9.23,0,0,0-4.7-1.19A8.57,8.57,0,0,0,280.43,197.95Z"/><path class="cls-5" d="M320.31,214.56v3.89H317q-4.09,0-6.11-1.95t-2-6.52v-14.4h-4v-3.84h4v-6.67h4.48v6.67h6.91v3.84h-6.91v14.5q0,2.58.95,3.53a4.57,4.57,0,0,0,3.28.95Z"/><path class="cls-5" d="M332.59,186.63q-1.39,1.27-1.39,4.38v.73h6.32v3.89H331.2v22.82h-4.43V195.64h-3.84v-3.89h3.84v-1.07q0-9.58,10.75-9.15v3.89Q334,185.37,332.59,186.63Z"/><path class="cls-5" d="M361.34,193.06a11.84,11.84,0,0,1,4.77,4.77,16.23,16.23,0,0,1,0,14.57,11.88,11.88,0,0,1-4.77,4.74,15.15,15.15,0,0,1-13.77,0,12,12,0,0,1-4.79-4.74,16,16,0,0,1,0-14.57,12,12,0,0,1,4.79-4.77,15.15,15.15,0,0,1,13.77,0Zm-11.29,3.31a8.05,8.05,0,0,0-3.26,3.28,11.07,11.07,0,0,0-1.24,5.47,11,11,0,0,0,1.24,5.42,8,8,0,0,0,3.26,3.28,9.59,9.59,0,0,0,8.81,0,8,8,0,0,0,3.26-3.28,11,11,0,0,0,1.24-5.42,11.06,11.06,0,0,0-1.24-5.47,8.05,8.05,0,0,0-3.26-3.28,9.59,9.59,0,0,0-8.81,0Z"/><path class="cls-5" d="M381.9,192.84a11.43,11.43,0,0,1,6-1.53v4.82h-1.36a9.46,9.46,0,0,0-6.13,1.92q-2.38,1.92-2.38,6.35v14.06h-4.43V191.74h4.43v5.4A9.82,9.82,0,0,1,381.9,192.84Z"/><path class="cls-5" d="M432.67,194.3q2.85,3,2.85,8.64v15.52h-4.43V203.32a8.61,8.61,0,0,0-1.92-6,6.81,6.81,0,0,0-5.28-2.09,7.26,7.26,0,0,0-5.62,2.31q-2.12,2.31-2.12,6.79v14.16h-4.43V203.32a8.54,8.54,0,0,0-1.95-6,6.83,6.83,0,0,0-5.25-2.09,7.31,7.31,0,0,0-5.67,2.31q-2.12,2.31-2.12,6.79v14.16h-4.43V191.74h4.43v6.08a8.67,8.67,0,0,1,3.48-4.84,10.86,10.86,0,0,1,11.68,0,9.4,9.4,0,0,1,3.58,5.08,9.65,9.65,0,0,1,3.75-5,10.36,10.36,0,0,1,5.94-1.78A9.89,9.89,0,0,1,432.67,194.3Z"/><path class="cls-5" d="M474.68,194.13a11.54,11.54,0,0,1,4.14,7.3h-4.67a6.83,6.83,0,0,0-2.65-4.5,9.37,9.37,0,0,0-9.63-.56,7.79,7.79,0,0,0-3.09,3.28,13.41,13.41,0,0,0,0,10.95,7.77,7.77,0,0,0,3.09,3.28,9.31,9.31,0,0,0,9.63-.58,6.92,6.92,0,0,0,2.65-4.52h4.67a11.48,11.48,0,0,1-4.14,7.32,13.08,13.08,0,0,1-8.47,2.7,13.76,13.76,0,0,1-6.81-1.65,11.68,11.68,0,0,1-4.65-4.74,16.65,16.65,0,0,1,0-14.57,11.65,11.65,0,0,1,4.65-4.77,13.76,13.76,0,0,1,6.81-1.65A13,13,0,0,1,474.68,194.13Z"/><path class="cls-5" d="M506.2,194.3q2.87,3,2.87,8.64v15.52h-4.43V203.32a8.54,8.54,0,0,0-2-6.13,7.31,7.31,0,0,0-5.55-2.14,7.58,7.58,0,0,0-5.84,2.36Q489,199.77,489,204.3v14.16H484.6v-36H489v15.62a9.09,9.09,0,0,1,3.62-5,10.51,10.51,0,0,1,6-1.75A10,10,0,0,1,506.2,194.3Z"/><path class="cls-5" d="M533.42,193.35a10.14,10.14,0,0,1,3.77,5.21v-6.81h4.43v26.71H537.2v-6.81a10.14,10.14,0,0,1-3.77,5.21,11,11,0,0,1-6.59,1.95,12.11,12.11,0,0,1-6.33-1.65,11.43,11.43,0,0,1-4.35-4.74,17.58,17.58,0,0,1,0-14.57,11.41,11.41,0,0,1,4.35-4.77,12.11,12.11,0,0,1,6.33-1.65A11,11,0,0,1,533.42,193.35Zm-11.87,4.6a11.71,11.71,0,0,0,0,14.35,8.57,8.57,0,0,0,6.54,2.6,9.09,9.09,0,0,0,4.7-1.22,8.47,8.47,0,0,0,3.24-3.43,10.84,10.84,0,0,0,1.17-5.13A11,11,0,0,0,536,200a8.28,8.28,0,0,0-3.24-3.43,9.23,9.23,0,0,0-4.7-1.19A8.57,8.57,0,0,0,521.55,197.95Z"/><path class="cls-5" d="M561.42,214.56v3.89h-3.31q-4.09,0-6.11-1.95T550,210v-14.4h-4v-3.84h4v-6.67h4.48v6.67h6.91v3.84h-6.91v14.5q0,2.58.95,3.53a4.57,4.57,0,0,0,3.28.95Z"/><path class="cls-5" d="M594.48,193.76a10,10,0,0,1,3.33,6.35h-4.23a6.13,6.13,0,0,0-2-3.92,6.42,6.42,0,0,0-4.5-1.53,5.55,5.55,0,0,0-3.72,1.14,3.85,3.85,0,0,0-1.34,3.09,3.19,3.19,0,0,0,.9,2.36,5.76,5.76,0,0,0,2.24,1.36,37.17,37.17,0,0,0,3.67,1,36.19,36.19,0,0,1,4.79,1.39,7.51,7.51,0,0,1,3.11,2.26,6.37,6.37,0,0,1,1.29,4.18,6.58,6.58,0,0,1-2.46,5.3,9.91,9.91,0,0,1-6.54,2,12.53,12.53,0,0,1-7.78-2.29,9.12,9.12,0,0,1-3.55-6.37H582a5.57,5.57,0,0,0,2.12,3.94,7.64,7.64,0,0,0,4.94,1.51,5.13,5.13,0,0,0,3.58-1.17,3.94,3.94,0,0,0,1.29-3.07,3.36,3.36,0,0,0-.92-2.48,6.08,6.08,0,0,0-2.29-1.41,33.61,33.61,0,0,0-3.75-1,36.25,36.25,0,0,1-4.74-1.36,7.25,7.25,0,0,1-3-2.17,6.06,6.06,0,0,1-1.24-4,6.72,6.72,0,0,1,2.48-5.42,10.24,10.24,0,0,1,6.76-2.07A10.78,10.78,0,0,1,594.48,193.76Z"/><path class="cls-5" d="M623,193.06a11.84,11.84,0,0,1,4.77,4.77,16.23,16.23,0,0,1,0,14.57,11.88,11.88,0,0,1-4.77,4.74,15.15,15.15,0,0,1-13.77,0,12,12,0,0,1-4.79-4.74,16,16,0,0,1,0-14.57,12,12,0,0,1,4.79-4.77,15.15,15.15,0,0,1,13.77,0Zm-11.29,3.31a8.05,8.05,0,0,0-3.26,3.28,11.07,11.07,0,0,0-1.24,5.47,11,11,0,0,0,1.24,5.42,8,8,0,0,0,3.26,3.28,9.59,9.59,0,0,0,8.81,0,8,8,0,0,0,3.26-3.28,11,11,0,0,0,1.24-5.42,11.06,11.06,0,0,0-1.24-5.47,8.05,8.05,0,0,0-3.26-3.28,9.59,9.59,0,0,0-8.81,0Z"/><path class="cls-5" d="M639.71,182.45v36h-4.43v-36Z"/><path class="cls-5" d="M670.55,191.74v26.71h-4.43v-6.28a9,9,0,0,1-3.62,5,10.7,10.7,0,0,1-6.06,1.73,9.91,9.91,0,0,1-7.49-3q-2.87-3-2.87-8.59V191.74h4.43v15.13a8.62,8.62,0,0,0,2,6.15,7.26,7.26,0,0,0,5.55,2.17,7.58,7.58,0,0,0,5.84-2.36q2.19-2.36,2.19-6.88V191.74Z"/><path class="cls-5" d="M690.4,214.56v3.89h-3.31q-4.09,0-6.11-1.95T679,210v-14.4h-4v-3.84h4v-6.67h4.48v6.67h6.91v3.84h-6.91v14.5q0,2.58.95,3.53a4.57,4.57,0,0,0,3.28.95Z"/><path class="cls-5" d="M695.85,181.94a3.55,3.55,0,0,1,4.38,0,2.76,2.76,0,0,1,0,3.94,3.56,3.56,0,0,1-4.38,0,2.76,2.76,0,0,1,0-3.94Zm4.38,9.8v26.71H695.8V191.74Z"/><path class="cls-5" d="M726.33,193.06a11.84,11.84,0,0,1,4.77,4.77,16.23,16.23,0,0,1,0,14.57,11.88,11.88,0,0,1-4.77,4.74,15.15,15.15,0,0,1-13.77,0,12,12,0,0,1-4.79-4.74,16,16,0,0,1,0-14.57,12,12,0,0,1,4.79-4.77,15.15,15.15,0,0,1,13.77,0ZM715,196.36a8.05,8.05,0,0,0-3.26,3.28,11.07,11.07,0,0,0-1.24,5.47,11,11,0,0,0,1.24,5.42,8,8,0,0,0,3.26,3.28,9.59,9.59,0,0,0,8.81,0,8,8,0,0,0,3.26-3.28,11,11,0,0,0,1.24-5.42,11.06,11.06,0,0,0-1.24-5.47,8.05,8.05,0,0,0-3.26-3.28,9.59,9.59,0,0,0-8.81,0Z"/><path class="cls-5" d="M760.22,194.3q2.87,3,2.87,8.64v15.52h-4.43V203.32a8.54,8.54,0,0,0-2-6.13,7.31,7.31,0,0,0-5.55-2.14,7.58,7.58,0,0,0-5.84,2.36Q743,199.77,743,204.3v14.16h-4.43V191.74H743v6.33a9.09,9.09,0,0,1,3.62-5,10.51,10.51,0,0,1,6-1.75A10,10,0,0,1,760.22,194.3Z"/><path class="cls-6" d="M990.25,87V130.4c0,.8,0,1.6,0,2.4a2.26,2.26,0,0,1,0,.48c0,.38-.06.7-.1,1.06v.26c0,.45-.06.9-.1,1.28V136a3.14,3.14,0,0,1-1.15,2,0,0,0,0,0,0,0l-.26.16-.16.1a4.61,4.61,0,0,1-.7.26,2.73,2.73,0,0,1-1.25,0,2.66,2.66,0,0,1-.67-.19l-.45-.26a2.51,2.51,0,0,1-.48-.38c-.26-.26-.48-.48-.74-.7l-1-.93-1.12-.93h0a17.34,17.34,0,0,0-2.37-1.63c-.45-.29-1-.54-1.44-.8s-1-.48-1.54-.7A30,30,0,0,0,964.95,130H932.22V49.38h20.4A37.63,37.63,0,0,1,990.25,87Z"/><path class="cls-7" d="M990.25,90.63V130.4c0,.8,0,1.6,0,2.4a2.26,2.26,0,0,1,0,.48c0,.38-.06.7-.1,1.06v.26c0,.45-.06.9-.1,1.28V136a3.14,3.14,0,0,1-1.15,2,0,0,0,0,0,0,0,0,0,0,0,1,0,0,2.25,2.25,0,0,1-.32-.26c-.26-.26-.45-.48-.7-.7a25.58,25.58,0,0,0-4.55-3.49c-3.75-2.24-8.39-3.59-14.64-3.59H932.22V53h20.4A37.65,37.65,0,0,1,990.25,90.63Z"/><path class="cls-8" d="M990.09,134.34v.26c0,.45-.06.9-.1,1.28V136a3.14,3.14,0,0,1-1.15,2h0v0l-.26.16-.16.1a4.61,4.61,0,0,1-.7.26,4.09,4.09,0,0,1-1.25,0,2.66,2.66,0,0,1-.67-.19l-.45-.26a2.51,2.51,0,0,1-.48-.38c-.26-.26-.48-.48-.74-.7l-1-.93-1.12-.93h0a17.34,17.34,0,0,0-2.37-1.63c-.45-.29-1-.54-1.44-.8s-1-.48-1.54-.7A30,30,0,0,0,964.95,130H932.22V53.45a92.6,92.6,0,0,1,54.38,60.3A89.65,89.65,0,0,1,990.09,134.34Z"/><path class="cls-9" d="M988.81,138h0l-.22.19-.16.1a4.61,4.61,0,0,1-.7.26,2.73,2.73,0,0,1-1.25,0,2.66,2.66,0,0,1-.67-.19l-.45-.26a2.51,2.51,0,0,1-.48-.38,7,7,0,0,0-.74-.67c-.32-.32-.67-.64-1-1l-1.12-.93h0a20.54,20.54,0,0,0-2.37-1.6c-.45-.29-1-.58-1.44-.83s-1-.48-1.54-.7A30,30,0,0,0,964.95,130H932.22V87.56A64.12,64.12,0,0,1,988.81,138Z"/><line class="cls-10" x1="972.05" y1="118.64" x2="953.74" y2="118.64"/><line class="cls-10" x1="972.05" y1="105.65" x2="942.04" y2="105.65"/><path class="cls-11" d="M940.63,84.31a5.33,5.33,0,1,1,4.24,4.14A5.34,5.34,0,0,1,940.63,84.31Z"/><path class="cls-12" d="M909.22,33.66H828.06a12.23,12.23,0,0,0-12.24,12.16V217l24.33-17.69.87-.65h72.59a12,12,0,0,0,9.22-4.25,12.18,12.18,0,0,0,3-8V50.26A16.59,16.59,0,0,0,909.22,33.66Zm-29,63.44a10.81,10.81,0,0,1,9.4-8.43,10.7,10.7,0,1,1-9.4,8.43Z"/><path class="cls-13" d="M925.81,50.26V186.4a12.18,12.18,0,0,1-3,8,157.34,157.34,0,0,1-107-148.49v-.07a12.23,12.23,0,0,1,12.24-12.16h81.16A16.59,16.59,0,0,1,925.81,50.26Z"/><line class="cls-14" x1="878.64" y1="178.35" x2="843.85" y2="178.35"/><line class="cls-14" x1="901.39" y1="158.89" x2="844.35" y2="158.89"/><path class="cls-15" d="M925.81,50.26v98.23c-.33,0-.65,0-1-.07a112.11,112.11,0,0,1-23-3.85,116.64,116.64,0,0,1-85.52-102,12.25,12.25,0,0,1,11.77-8.86h81.16A16.59,16.59,0,0,1,925.81,50.26Z"/><path class="cls-16" d="M901.38,99.33a10.69,10.69,0,1,1-10.69-10.69A10.69,10.69,0,0,1,901.38,99.33Z"/><path d="M901.38,99.33a10.69,10.69,0,1,1-10.69-10.69A10.69,10.69,0,0,1,901.38,99.33Z"/><path class="cls-17" d="M880.22,101.55a10.7,10.7,0,1,1,8.51,8.3A10.72,10.72,0,0,1,880.22,101.55Z"/><path class="cls-11" d="M892.64,95.64a2.25,2.25,0,1,1,1.79,1.74A2.25,2.25,0,0,1,892.64,95.64Z"/><path class="cls-18" d="M925.81,50.26v6a116.06,116.06,0,0,1-12.89.73,116.16,116.16,0,0,1-70-23.31h66.26A16.59,16.59,0,0,1,925.81,50.26Z"/></g></svg>